<svg xmlns="http://www.w3.org/2000/svg" xmlns:xlink="http://www.w3.org/1999/xlink" width="271px" height="90px" viewBox="0 0 271 90" version="1.1">
    <!-- Generator: Sketch 55.2 (78181) - https://sketchapp.com -->
    <title>Artboard</title>
    <desc fill="#3578f6">Created with Sketch.</desc>
    <g id="Artboard" stroke="none" stroke-width="1" fill="none" fill-rule="evenodd">
        <g id="LogoFinal-(1)" transform="translate(34.000000, 15.000000)" fill="#3578f6" fill-rule="nonzero">
            <path d="M87,15 L87,36.3992617 L87,36.4980917 L87,47 L94.2887098,47 L94.2887098,36.4980917 L102.255107,36.4980917 C108.207719,36.4980917 113,31.7038851 113,25.7490459 C113,19.794286 108.207647,15 102.255107,15 L87,15 Z M93.7394435,21.0867304 L101.378271,21.0867304 C104.358971,21.0867304 106.758312,23.1436312 106.758312,25.6988902 C106.758312,28.2541517 104.358971,30.3111318 101.378271,30.3111318 L93.7394435,30.3111318 L93.7394435,21.0867304 Z" id="path4284" stroke="#3578f6" stroke-width="0.0776137" stroke-linecap="round" stroke-linejoin="round" fill="#3578f6"/>
            <polygon id="path4286" stroke="#3578f6" stroke-width="0.166163" points="118 15 118 21.3577052 127.022627 21.2914946 127.022627 46.9337895 134.116813 47 133.977447 21.2163902 143 21.2163902 142.935234 15.0706587" fill="#3578f6"/>
            <rect id="rect4288" x="150" y="15" width="7" height="32" fill="#3578f6"/>
            <g id="path4290" transform="translate(0.000000, 33.000000)">
                <path d="M0.462279429,0.7004508 C2.14099552,15.4663124 14.947785,26.8744756 30.2260069,26.6140784 C40.1256457,26.4451264 48.829181,21.413406 54.044679,13.8630044 L46.1332029,13.7275404 C44.8578381,16.079798 36.4195562,20.462862 30.1244627,20.5701552 C18.1721679,20.7732112 8.227278,12.1263212 6.60183076,0.7004508 L0.462279429,0.7004508 Z" id="path1127" fill="#3578f6"/>
                <path d="M0.461867905,0.289812057 C0.346573148,0.290653624 0.237087449,0.341258307 0.160872212,0.42896609 C0.0846569754,0.516673872 0.048942606,0.63316407 0.0626870476,0.7492184 C1.76550076,15.7270288 14.7525542,27.29041 30.2332596,27.0265632 C40.2641552,26.8553712 49.0899324,21.7543872 54.3783448,14.0984368 C54.4643614,13.9734587 54.4749967,13.8104547 54.4059672,13.6750794 C54.3369377,13.5397042 54.1996078,13.4542452 54.0492914,13.4531236 L46.1411848,13.3163996 C45.9910162,13.3140292 45.8518919,13.3961266 45.7797619,13.5296756 C45.526219,13.9974716 44.7948943,14.7070924 43.7515019,15.432802 C42.7080819,16.1585116 41.3551905,16.9218252 39.8459752,17.6148336 C36.8275448,19.0008448 33.1779224,20.1056828 30.1199773,20.157802 C18.3639684,20.357526 8.6014719,11.8605592 7.00520695,0.6398336 C6.9754445,0.437134417 6.80276603,0.287749301 6.6006321,0.289812057 L0.461867905,0.289812057 Z M1.00669505,1.1101552 L6.32012752,1.1101552 C8.13741667,12.5539708 18.113621,21.1822828 30.1307653,20.9781236 C33.3679083,20.9229636 37.0871086,19.7844668 40.1804419,18.3640632 C41.727081,17.65386 43.1158219,16.8719768 44.2100057,16.1109368 C45.1963371,15.4249116 45.8405514,14.77721 46.2598638,14.1367184 L53.15924,14.2570344 C47.9714714,21.3197404 39.6824981,26.0447124 30.2170749,26.2062528 C15.3113069,26.4602968 2.88611324,15.425354 1.00669505,1.1101552 L1.00669505,1.1101552 Z" id="path1124" fill="#3578f6"/>
            </g>
            <g id="path4292">
                <path d="M29.9552428,0.76834025 C29.7041874,0.766943417 29.4539513,0.768258083 29.2012694,0.77269025 C14.2863302,1.04025875 2.1240105,12.5449406 0.558348833,27.0963624 L6.66595908,27.0963624 C8.18417917,15.8291519 17.6492233,7.09437608 29.3191351,6.88498883 C36.2203158,6.76106217 42.4525608,9.64380233 46.7912267,14.3375007 L54.398555,14.3375007 C49.19523,6.23064008 40.1628417,0.846889167 29.9551631,0.76842 L29.9552428,0.76834025 Z" id="path1297" fill="#3578f6"/>
                <path d="M29.9588219,0.359375 C29.7048278,0.35796125 29.4501716,0.359604583 29.1941741,0.364208333 C14.0730279,0.63547675 1.73899925,12.2987862 0.1516915,27.0513834 C0.139178427,27.16674 0.176250055,27.2819826 0.253673099,27.3684081 C0.331096142,27.4548337 0.441583525,27.5045089 0.557616583,27.5045089 L6.66536458,27.5045089 C6.8702361,27.5048211 7.04373524,27.3535133 7.07128967,27.150503 C8.56320192,16.0786075 17.8564452,7.4990445 29.3263343,7.293246 C36.1092531,7.171446 42.230358,10.0024139 46.493155,14.6140447 C46.5697322,14.6973335 46.6773886,14.7451818 46.7905258,14.7462122 L54.3992558,14.7462122 C54.5481753,14.7458349 54.6851217,14.6645485 54.7567766,14.5340006 C54.8284315,14.4034528 54.8234701,14.2442763 54.7438242,14.1184443 C49.4687483,5.89968242 40.3084241,0.438934083 29.9588219,0.359375 Z M29.9539886,1.17594492 C39.7301641,1.25110325 48.3426542,6.31661542 53.53537,13.9295238 L46.9084108,13.9295238 C42.501015,9.25209692 36.2496155,6.35198333 29.3120615,6.4765625 C17.5730476,6.68719917 8.07590283,15.4087292 6.37260717,26.6878249 L1.1003105,26.6878249 C2.85870375,12.5671401 14.6652562,1.44156075 29.2083333,1.18066467 C29.4576995,1.17631467 29.7059854,1.174623 29.9541022,1.17583133 L29.9539886,1.17594492 Z" id="path1299" fill="#3578f6"/>
            </g>
            <polygon id="path4294" stroke="#3578f6" stroke-width="0.338463" points="63.7352987 15 49 41.0897102 57.0684085 41.0897102 63.8741477 29.0949427 73.0284019 45.9595253 81 46" fill="#3578f6"/>
            <path d="M179.590703,15.0004368 C178.223019,14.9980726 176.833841,15.1675629 175.450148,15.5229897 C175.444341,15.5338196 175.438603,15.5446847 175.432934,15.5555844 C175.427217,15.5501216 175.421479,15.5446811 175.415719,15.539263 C166.562796,17.8232499 161.252376,26.8494672 163.525512,35.6171803 C165.798698,44.3849727 174.889672,49.7541387 183.744045,47.4760227 C188.98369,46.1279035 192.985399,42.4146827 194.909969,37.7909499 L188.086156,37.7909499 C186.695971,39.6711579 184.670524,41.0999863 182.222391,41.729821 C176.563624,43.1857932 170.853805,39.8497738 169.376293,34.1510984 C167.898806,28.4523414 171.301035,22.7282336 176.958818,21.2685914 C176.964556,21.2686074 176.970294,21.2686074 176.976032,21.2685914 C181.367352,20.141802 185.781468,21.8963067 188.227585,25.4012404 L195,25.4012404 C192.47996,19.1174845 186.29399,15.0116554 179.594982,15 L179.590703,15.0004368 Z" id="path4296" stroke="#3578f6" stroke-width="0.676927" stroke-linecap="round" stroke-linejoin="round" fill="#3578f6"/>
            <path d="M30.5896023,14.0004368 C29.2218002,13.998075 27.8327673,14.1675629 26.4489579,14.522992 C26.4433979,14.5338237 26.4379054,14.5446889 26.432481,14.5555868 C26.4270101,14.5501254 26.4215177,14.5446849 26.416004,14.5392654 C17.5628799,16.8232521 12.2523467,25.8494687 14.5255179,34.6171788 C16.7987703,43.3849729 25.889955,48.7541385 34.7444808,46.4760228 C39.9842637,45.1279013 43.9860341,41.4146831 45.9106553,36.7909506 L39.086661,36.7909506 C37.6964944,38.6711585 35.6710044,40.0999868 33.222818,40.729819 C27.563912,42.1857936 21.8539887,38.8497744 20.3764498,33.151097 C18.8989109,27.4523429 22.3012432,21.728233 27.9591557,20.2685933 C27.9646481,20.268608 27.9701404,20.268608 27.9756327,20.2685933 C32.3670225,19.1418041 36.7812342,20.8963086 39.2274532,24.4012396 L46,24.4012396 C43.4799198,18.1174866 37.2937671,14.0116578 30.5946118,14 L30.5896023,14.0004368 Z" id="path4300" stroke="#3578f6" stroke-width="0.676927" stroke-linecap="round" stroke-linejoin="round" fill="#3578f6"/>
        </g>
    </g>
</svg>